<svg width="91" height="16" viewBox="0 0 91 16" fill="none" xmlns="http://www.w3.org/2000/svg">
<path d="M11.5179 14.8848C11.3197 14.8846 11.126 14.8252 10.9617 14.7143L7.61586 12.4718C7.59938 12.4604 7.57982 12.4543 7.55979 12.4543C7.53977 12.4543 7.52021 12.4604 7.50373 12.4718L4.15784 14.7143C3.98983 14.8265 3.79166 14.8849 3.58966 14.8818C3.38766 14.8787 3.19138 14.8143 3.02688 14.697C2.86239 14.5797 2.73746 14.4151 2.6687 14.2252C2.59993 14.0352 2.59058 13.8288 2.64188 13.6334L3.74073 9.75829C3.74592 9.7388 3.74529 9.71822 3.73892 9.69909C3.73254 9.67996 3.7207 9.66312 3.70485 9.65064L0.538367 7.16141C0.371673 7.03723 0.248023 6.864 0.184755 6.66599C0.121486 6.46799 0.121773 6.25515 0.185573 6.05732C0.249374 5.85949 0.373489 5.68659 0.540517 5.56285C0.707545 5.43912 0.909108 5.37077 1.11695 5.36737L5.15354 5.21488C5.17338 5.21351 5.19241 5.20643 5.20833 5.19449C5.22424 5.18256 5.23637 5.16627 5.24324 5.1476L6.63362 1.36666C6.7037 1.17499 6.83099 1.00948 6.99826 0.89254C7.16552 0.775604 7.36468 0.712891 7.56876 0.712891C7.77285 0.712891 7.97201 0.775604 8.13927 0.89254C8.30653 1.00948 8.43382 1.17499 8.50391 1.36666L9.89429 5.1476C9.90116 5.16627 9.91329 5.18256 9.9292 5.19449C9.94512 5.20643 9.96414 5.21351 9.98399 5.21488L14.0206 5.36737C14.2284 5.37077 14.43 5.43912 14.597 5.56285C14.764 5.68659 14.8882 5.85949 14.952 6.05732C15.0158 6.25515 15.016 6.46799 14.9528 6.66599C14.8895 6.864 14.7659 7.03723 14.5992 7.16141L11.4327 9.65064C11.4163 9.66271 11.4041 9.67953 11.3977 9.69879C11.3913 9.71806 11.391 9.73883 11.3968 9.75829L12.4956 13.6334C12.5342 13.7821 12.538 13.9376 12.5068 14.0879C12.4756 14.2383 12.4102 14.3794 12.3157 14.5004C12.2211 14.6214 12.1 14.719 11.9616 14.7857C11.8233 14.8523 11.6714 14.8862 11.5179 14.8848V14.8848ZM7.56204 11.5568C7.76065 11.5629 7.95285 11.6285 8.1137 11.7452L11.4596 13.9877C11.4765 14.0006 11.4972 14.0077 11.5185 14.0078C11.5398 14.008 11.5606 14.0013 11.5777 13.9887C11.5949 13.9761 11.6075 13.9582 11.6137 13.9378C11.6199 13.9175 11.6193 13.8956 11.6121 13.8756L10.5132 10.0005C10.4592 9.81039 10.4631 9.60847 10.5247 9.42066C10.5862 9.23285 10.7025 9.06772 10.8586 8.94648L14.0251 6.45725C14.0423 6.44512 14.0553 6.42777 14.062 6.40774C14.0686 6.38772 14.0687 6.36608 14.0622 6.34601C14.0557 6.32593 14.0429 6.30848 14.0257 6.29621C14.0085 6.28394 13.9879 6.27751 13.9668 6.27785L9.93017 6.12535C9.73252 6.11765 9.54164 6.05125 9.38188 5.93463C9.22212 5.818 9.10071 5.65643 9.03315 5.47053L7.64277 1.68959C7.6365 1.66951 7.62398 1.65197 7.60704 1.63951C7.59009 1.62705 7.56961 1.62033 7.54858 1.62033C7.52755 1.62033 7.50707 1.62705 7.49013 1.63951C7.47318 1.65197 7.46066 1.66951 7.45439 1.68959L6.07747 5.46604C6.0099 5.65195 5.8885 5.81351 5.72874 5.93014C5.56897 6.04677 5.3781 6.11316 5.18045 6.12087L1.14386 6.27336C1.12275 6.27302 1.10209 6.27946 1.08491 6.29173C1.06774 6.304 1.05495 6.32145 1.04842 6.34152C1.0419 6.3616 1.04198 6.38324 1.04867 6.40326C1.05535 6.42328 1.06828 6.44063 1.08555 6.45277L4.25652 8.94648C4.41212 9.06811 4.52804 9.23326 4.58954 9.42094C4.65104 9.60862 4.65533 9.81036 4.60187 10.0005L3.5075 13.8756C3.50097 13.895 3.50094 13.916 3.50742 13.9354C3.51389 13.9549 3.52652 13.9716 3.54338 13.9833C3.55963 13.9971 3.58031 14.0048 3.60169 14.0048C3.62307 14.0048 3.64375 13.9971 3.66 13.9833L7.00588 11.7407C7.1694 11.6322 7.36133 11.5745 7.55755 11.5748L7.56204 11.5568Z" fill="#FFCE31"/>
<path d="M5.51962 5.6465L7.08941 1.60991L7.98643 1.1614L9.1077 4.74948L9.78047 5.6465L14.2656 5.87076L14.7141 6.31927L10.9017 9.68309L12.023 14.1682L11.7988 14.6167L7.76217 11.9256L3.50133 14.6167L3.05282 14.3924L4.17409 9.68309L1.25878 6.76778L0.361755 6.09501H0.58601L5.51962 5.6465Z" fill="#FFCE31"/>
<path d="M30.3804 14.8848C30.1822 14.8846 29.9885 14.8252 29.8242 14.7143L26.4783 12.4718C26.4619 12.4604 26.4423 12.4543 26.4223 12.4543C26.4023 12.4543 26.3827 12.4604 26.3662 12.4718L23.0203 14.7143C22.8523 14.8265 22.6541 14.8849 22.4521 14.8818C22.2501 14.8787 22.0539 14.8143 21.8894 14.697C21.7249 14.5797 21.5999 14.4151 21.5312 14.2252C21.4624 14.0352 21.4531 13.8288 21.5044 13.6334L22.6032 9.75829C22.6084 9.7388 22.6078 9.71822 22.6014 9.69909C22.595 9.67996 22.5832 9.66312 22.5673 9.65064L19.4009 7.16141C19.2342 7.03723 19.1105 6.864 19.0472 6.66599C18.984 6.46799 18.9843 6.25515 19.0481 6.05732C19.1119 5.85949 19.236 5.68659 19.403 5.56285C19.57 5.43912 19.7716 5.37077 19.9794 5.36737L24.016 5.21488C24.0359 5.21351 24.0549 5.20643 24.0708 5.19449C24.0867 5.18256 24.0989 5.16627 24.1057 5.1476L25.4961 1.36666C25.5662 1.17499 25.6935 1.00948 25.8607 0.89254C26.028 0.775604 26.2272 0.712891 26.4313 0.712891C26.6353 0.712891 26.8345 0.775604 27.0018 0.89254C27.169 1.00948 27.2963 1.17499 27.3664 1.36666L28.7568 5.1476C28.7636 5.16627 28.7758 5.18256 28.7917 5.19449C28.8076 5.20643 28.8266 5.21351 28.8465 5.21488L32.8831 5.36737C33.0909 5.37077 33.2925 5.43912 33.4595 5.56285C33.6265 5.68659 33.7506 5.85949 33.8144 6.05732C33.8782 6.25515 33.8785 6.46799 33.8153 6.66599C33.752 6.864 33.6283 7.03723 33.4616 7.16141L30.2952 9.65064C30.2788 9.66271 30.2666 9.67953 30.2602 9.69879C30.2538 9.71806 30.2535 9.73883 30.2593 9.75829L31.3581 13.6334C31.3967 13.7821 31.4005 13.9376 31.3693 14.0879C31.3381 14.2383 31.2727 14.3794 31.1781 14.5004C31.0836 14.6214 30.9625 14.719 30.8241 14.7857C30.6858 14.8523 30.5339 14.8862 30.3804 14.8848V14.8848ZM26.4245 11.5568C26.6231 11.5629 26.8153 11.6285 26.9762 11.7452L30.3221 13.9877C30.339 14.0006 30.3597 14.0077 30.381 14.0078C30.4023 14.008 30.4231 14.0013 30.4402 13.9887C30.4574 13.9761 30.47 13.9582 30.4762 13.9378C30.4824 13.9175 30.4818 13.8956 30.4746 13.8756L29.3757 10.0005C29.3216 9.81039 29.3256 9.60847 29.3872 9.42066C29.4487 9.23285 29.565 9.06772 29.7211 8.94648L32.8876 6.45725C32.9048 6.44512 32.9178 6.42777 32.9244 6.40774C32.9311 6.38772 32.9312 6.36608 32.9247 6.34601C32.9182 6.32593 32.9054 6.30848 32.8882 6.29621C32.871 6.28394 32.8504 6.27751 32.8292 6.27785L28.7927 6.12535C28.595 6.11765 28.4041 6.05125 28.2444 5.93463C28.0846 5.818 27.9632 5.65643 27.8956 5.47053L26.5053 1.68959C26.499 1.66951 26.4865 1.65197 26.4695 1.63951C26.4526 1.62705 26.4321 1.62033 26.4111 1.62033C26.39 1.62033 26.3696 1.62705 26.3526 1.63951C26.3357 1.65197 26.3231 1.66951 26.3169 1.68959L24.94 5.46604C24.8724 5.65195 24.751 5.81351 24.5912 5.93014C24.4315 6.04677 24.2406 6.11316 24.0429 6.12087L20.0063 6.27336C19.9852 6.27302 19.9646 6.27946 19.9474 6.29173C19.9302 6.304 19.9174 6.32145 19.9109 6.34152C19.9044 6.3616 19.9045 6.38324 19.9112 6.40326C19.9178 6.42328 19.9308 6.44063 19.948 6.45277L23.119 8.94648C23.2746 9.06811 23.3905 9.23326 23.452 9.42094C23.5135 9.60862 23.5178 9.81036 23.4644 10.0005L22.37 13.8756C22.3635 13.895 22.3634 13.916 22.3699 13.9354C22.3764 13.9549 22.389 13.9716 22.4059 13.9833C22.4221 13.9971 22.4428 14.0048 22.4642 14.0048C22.4856 14.0048 22.5062 13.9971 22.5225 13.9833L25.8684 11.7407C26.0319 11.6322 26.2238 11.5745 26.42 11.5748L26.4245 11.5568Z" fill="#FFCE31"/>
<path d="M24.3821 5.6465L25.9519 1.60991L26.8489 1.1614L27.9702 4.74948L28.643 5.6465L33.1281 5.87076L33.5766 6.31927L29.7642 9.68309L30.8855 14.1682L30.6613 14.6167L26.6247 11.9256L22.3638 14.6167L21.9153 14.3924L23.0366 9.68309L20.1213 6.76778L19.2242 6.09501H19.4485L24.3821 5.6465Z" fill="#FFCE31"/>
<path d="M49.3804 14.8848C49.1822 14.8846 48.9885 14.8252 48.8242 14.7143L45.4783 12.4718C45.4619 12.4604 45.4423 12.4543 45.4223 12.4543C45.4023 12.4543 45.3827 12.4604 45.3662 12.4718L42.0203 14.7143C41.8523 14.8265 41.6541 14.8849 41.4521 14.8818C41.2501 14.8787 41.0539 14.8143 40.8894 14.697C40.7249 14.5797 40.5999 14.4151 40.5312 14.2252C40.4624 14.0352 40.4531 13.8288 40.5044 13.6334L41.6032 9.75829C41.6084 9.7388 41.6078 9.71822 41.6014 9.69909C41.595 9.67996 41.5832 9.66312 41.5673 9.65064L38.4009 7.16141C38.2342 7.03723 38.1105 6.864 38.0472 6.66599C37.984 6.46799 37.9843 6.25515 38.0481 6.05732C38.1119 5.85949 38.236 5.68659 38.403 5.56285C38.57 5.43912 38.7716 5.37077 38.9794 5.36737L43.016 5.21488C43.0359 5.21351 43.0549 5.20643 43.0708 5.19449C43.0867 5.18256 43.0989 5.16627 43.1057 5.1476L44.4961 1.36666C44.5662 1.17499 44.6935 1.00948 44.8607 0.89254C45.028 0.775604 45.2272 0.712891 45.4313 0.712891C45.6353 0.712891 45.8345 0.775604 46.0018 0.89254C46.169 1.00948 46.2963 1.17499 46.3664 1.36666L47.7568 5.1476C47.7636 5.16627 47.7758 5.18256 47.7917 5.19449C47.8076 5.20643 47.8266 5.21351 47.8465 5.21488L51.8831 5.36737C52.0909 5.37077 52.2925 5.43912 52.4595 5.56285C52.6265 5.68659 52.7506 5.85949 52.8144 6.05732C52.8782 6.25515 52.8785 6.46799 52.8153 6.66599C52.752 6.864 52.6283 7.03723 52.4616 7.16141L49.2952 9.65064C49.2788 9.66271 49.2666 9.67953 49.2602 9.69879C49.2538 9.71806 49.2535 9.73883 49.2593 9.75829L50.3581 13.6334C50.3967 13.7821 50.4005 13.9376 50.3693 14.0879C50.3381 14.2383 50.2727 14.3794 50.1781 14.5004C50.0836 14.6214 49.9625 14.719 49.8241 14.7857C49.6858 14.8523 49.5339 14.8862 49.3804 14.8848V14.8848ZM45.4245 11.5568C45.6231 11.5629 45.8153 11.6285 45.9762 11.7452L49.3221 13.9877C49.339 14.0006 49.3597 14.0077 49.381 14.0078C49.4023 14.008 49.4231 14.0013 49.4402 13.9887C49.4574 13.9761 49.47 13.9582 49.4762 13.9378C49.4824 13.9175 49.4818 13.8956 49.4746 13.8756L48.3757 10.0005C48.3216 9.81039 48.3256 9.60847 48.3872 9.42066C48.4487 9.23285 48.565 9.06772 48.7211 8.94648L51.8876 6.45725C51.9048 6.44512 51.9178 6.42777 51.9244 6.40774C51.9311 6.38772 51.9312 6.36608 51.9247 6.34601C51.9182 6.32593 51.9054 6.30848 51.8882 6.29621C51.871 6.28394 51.8504 6.27751 51.8292 6.27785L47.7927 6.12535C47.595 6.11765 47.4041 6.05125 47.2444 5.93463C47.0846 5.818 46.9632 5.65643 46.8956 5.47053L45.5053 1.68959C45.499 1.66951 45.4865 1.65197 45.4695 1.63951C45.4526 1.62705 45.4321 1.62033 45.4111 1.62033C45.39 1.62033 45.3696 1.62705 45.3526 1.63951C45.3357 1.65197 45.3231 1.66951 45.3169 1.68959L43.94 5.46604C43.8724 5.65195 43.751 5.81351 43.5912 5.93014C43.4315 6.04677 43.2406 6.11316 43.0429 6.12087L39.0063 6.27336C38.9852 6.27302 38.9646 6.27946 38.9474 6.29173C38.9302 6.304 38.9174 6.32145 38.9109 6.34152C38.9044 6.3616 38.9045 6.38324 38.9112 6.40326C38.9178 6.42328 38.9308 6.44063 38.948 6.45277L42.119 8.94648C42.2746 9.06811 42.3905 9.23326 42.452 9.42094C42.5135 9.60862 42.5178 9.81036 42.4644 10.0005L41.37 13.8756C41.3635 13.895 41.3634 13.916 41.3699 13.9354C41.3764 13.9549 41.389 13.9716 41.4059 13.9833C41.4221 13.9971 41.4428 14.0048 41.4642 14.0048C41.4856 14.0048 41.5062 13.9971 41.5225 13.9833L44.8684 11.7407C45.0319 11.6322 45.2238 11.5745 45.42 11.5748L45.4245 11.5568Z" fill="#FFCE31"/>
<path d="M43.3821 5.6465L44.9519 1.60991L45.8489 1.1614L46.9702 4.74948L47.643 5.6465L52.1281 5.87076L52.5766 6.31927L48.7642 9.68309L49.8855 14.1682L49.6613 14.6167L45.6247 11.9256L41.3638 14.6167L40.9153 14.3924L42.0366 9.68309L39.1213 6.76778L38.2242 6.09501H38.4485L43.3821 5.6465Z" fill="#FFCE31"/>
<path d="M68.3804 14.8848C68.1822 14.8846 67.9885 14.8252 67.8242 14.7143L64.4783 12.4718C64.4619 12.4604 64.4423 12.4543 64.4223 12.4543C64.4023 12.4543 64.3827 12.4604 64.3662 12.4718L61.0203 14.7143C60.8523 14.8265 60.6541 14.8849 60.4521 14.8818C60.2501 14.8787 60.0539 14.8143 59.8894 14.697C59.7249 14.5797 59.5999 14.4151 59.5312 14.2252C59.4624 14.0352 59.4531 13.8288 59.5044 13.6334L60.6032 9.75829C60.6084 9.7388 60.6078 9.71822 60.6014 9.69909C60.595 9.67996 60.5832 9.66312 60.5673 9.65064L57.4009 7.16141C57.2342 7.03723 57.1105 6.864 57.0472 6.66599C56.984 6.46799 56.9843 6.25515 57.0481 6.05732C57.1119 5.85949 57.236 5.68659 57.403 5.56285C57.57 5.43912 57.7716 5.37077 57.9794 5.36737L62.016 5.21488C62.0359 5.21351 62.0549 5.20643 62.0708 5.19449C62.0867 5.18256 62.0989 5.16627 62.1057 5.1476L63.4961 1.36666C63.5662 1.17499 63.6935 1.00948 63.8607 0.89254C64.028 0.775604 64.2272 0.712891 64.4313 0.712891C64.6353 0.712891 64.8345 0.775604 65.0018 0.89254C65.169 1.00948 65.2963 1.17499 65.3664 1.36666L66.7568 5.1476C66.7636 5.16627 66.7758 5.18256 66.7917 5.19449C66.8076 5.20643 66.8266 5.21351 66.8465 5.21488L70.8831 5.36737C71.0909 5.37077 71.2925 5.43912 71.4595 5.56285C71.6265 5.68659 71.7506 5.85949 71.8144 6.05732C71.8782 6.25515 71.8785 6.46799 71.8153 6.66599C71.752 6.864 71.6283 7.03723 71.4616 7.16141L68.2952 9.65064C68.2788 9.66271 68.2666 9.67953 68.2602 9.69879C68.2538 9.71806 68.2535 9.73883 68.2593 9.75829L69.3581 13.6334C69.3967 13.7821 69.4005 13.9376 69.3693 14.0879C69.3381 14.2383 69.2727 14.3794 69.1781 14.5004C69.0836 14.6214 68.9625 14.719 68.8241 14.7857C68.6858 14.8523 68.5339 14.8862 68.3804 14.8848V14.8848ZM64.4245 11.5568C64.6231 11.5629 64.8153 11.6285 64.9762 11.7452L68.3221 13.9877C68.339 14.0006 68.3597 14.0077 68.381 14.0078C68.4023 14.008 68.4231 14.0013 68.4402 13.9887C68.4574 13.9761 68.47 13.9582 68.4762 13.9378C68.4824 13.9175 68.4818 13.8956 68.4746 13.8756L67.3757 10.0005C67.3216 9.81039 67.3256 9.60847 67.3872 9.42066C67.4487 9.23285 67.565 9.06772 67.7211 8.94648L70.8876 6.45725C70.9048 6.44512 70.9178 6.42777 70.9244 6.40774C70.9311 6.38772 70.9312 6.36608 70.9247 6.34601C70.9182 6.32593 70.9054 6.30848 70.8882 6.29621C70.871 6.28394 70.8504 6.27751 70.8292 6.27785L66.7927 6.12535C66.595 6.11765 66.4041 6.05125 66.2444 5.93463C66.0846 5.818 65.9632 5.65643 65.8956 5.47053L64.5053 1.68959C64.499 1.66951 64.4865 1.65197 64.4695 1.63951C64.4526 1.62705 64.4321 1.62033 64.4111 1.62033C64.39 1.62033 64.3696 1.62705 64.3526 1.63951C64.3357 1.65197 64.3231 1.66951 64.3169 1.68959L62.94 5.46604C62.8724 5.65195 62.751 5.81351 62.5912 5.93014C62.4315 6.04677 62.2406 6.11316 62.0429 6.12087L58.0063 6.27336C57.9852 6.27302 57.9646 6.27946 57.9474 6.29173C57.9302 6.304 57.9174 6.32145 57.9109 6.34152C57.9044 6.3616 57.9045 6.38324 57.9112 6.40326C57.9178 6.42328 57.9308 6.44063 57.948 6.45277L61.119 8.94648C61.2746 9.06811 61.3905 9.23326 61.452 9.42094C61.5135 9.60862 61.5178 9.81036 61.4644 10.0005L60.37 13.8756C60.3635 13.895 60.3634 13.916 60.3699 13.9354C60.3764 13.9549 60.389 13.9716 60.4059 13.9833C60.4221 13.9971 60.4428 14.0048 60.4642 14.0048C60.4856 14.0048 60.5062 13.9971 60.5225 13.9833L63.8684 11.7407C64.0319 11.6322 64.2238 11.5745 64.42 11.5748L64.4245 11.5568Z" fill="#FFCE31"/>
<path d="M62.3821 5.6465L63.9519 1.60991L64.8489 1.1614L65.9702 4.74948L66.643 5.6465L71.1281 5.87076L71.5766 6.31927L67.7642 9.68309L68.8855 14.1682L68.6613 14.6167L64.6247 11.9256L60.3638 14.6167L59.9153 14.3924L61.0366 9.68309L58.1213 6.76778L57.2242 6.09501H57.4485L62.3821 5.6465Z" fill="#FFCE31"/>
<path d="M87.3804 15.1719C87.1822 15.1717 86.9885 15.1123 86.8242 15.0014L83.4783 12.7589C83.4619 12.7475 83.4423 12.7414 83.4223 12.7414C83.4023 12.7414 83.3827 12.7475 83.3662 12.7589L80.0203 15.0014C79.8523 15.1136 79.6541 15.172 79.4521 15.1689C79.2501 15.1658 79.0539 15.1014 78.8894 14.9841C78.7249 14.8668 78.5999 14.7022 78.5312 14.5123C78.4624 14.3223 78.4531 14.1159 78.5044 13.9205L79.6032 10.0454C79.6084 10.0259 79.6078 10.0053 79.6014 9.9862C79.595 9.96707 79.5832 9.95022 79.5673 9.93775L76.4009 7.44852C76.2342 7.32434 76.1105 7.1511 76.0472 6.9531C75.984 6.7551 75.9843 6.54226 76.0481 6.34443C76.1119 6.1466 76.236 5.9737 76.403 5.84996C76.57 5.72623 76.7716 5.65788 76.9794 5.65448L81.016 5.50199C81.0359 5.50062 81.0549 5.49354 81.0708 5.4816C81.0867 5.46967 81.0989 5.45338 81.1057 5.43471L82.4961 1.65377C82.5662 1.4621 82.6935 1.29659 82.8607 1.17965C83.028 1.06271 83.2272 1 83.4313 1C83.6353 1 83.8345 1.06271 84.0018 1.17965C84.169 1.29659 84.2963 1.4621 84.3664 1.65377L85.7568 5.43471C85.7636 5.45338 85.7758 5.46967 85.7917 5.4816C85.8076 5.49354 85.8266 5.50062 85.8465 5.50199L89.8831 5.65448C90.0909 5.65788 90.2925 5.72623 90.4595 5.84996C90.6265 5.9737 90.7506 6.1466 90.8144 6.34443C90.8782 6.54226 90.8785 6.7551 90.8153 6.9531C90.752 7.1511 90.6283 7.32434 90.4616 7.44852L87.2952 9.93775C87.2788 9.94982 87.2666 9.96664 87.2602 9.9859C87.2538 10.0052 87.2535 10.0259 87.2593 10.0454L88.3581 13.9205C88.3967 14.0692 88.4005 14.2247 88.3693 14.375C88.3381 14.5254 88.2727 14.6665 88.1781 14.7875C88.0836 14.9085 87.9625 15.0062 87.8241 15.0728C87.6858 15.1394 87.5339 15.1733 87.3804 15.1719V15.1719ZM83.4245 11.8439C83.6231 11.85 83.8153 11.9156 83.9762 12.0323L87.3221 14.2748C87.339 14.2877 87.3597 14.2948 87.381 14.295C87.4023 14.2951 87.4231 14.2884 87.4402 14.2758C87.4574 14.2632 87.47 14.2453 87.4762 14.225C87.4824 14.2046 87.4818 14.1827 87.4746 14.1627L86.3757 10.2876C86.3216 10.0975 86.3256 9.89558 86.3872 9.70777C86.4487 9.51995 86.565 9.35483 86.7211 9.23359L89.8876 6.74436C89.9048 6.73223 89.9178 6.71488 89.9244 6.69485C89.9311 6.67483 89.9312 6.65319 89.9247 6.63312C89.9182 6.61304 89.9054 6.59559 89.8882 6.58332C89.871 6.57105 89.8504 6.56462 89.8292 6.56496L85.7927 6.41246C85.595 6.40476 85.4041 6.33836 85.2444 6.22173C85.0846 6.10511 84.9632 5.94354 84.8956 5.75764L83.5053 1.9767C83.499 1.95662 83.4865 1.93908 83.4695 1.92662C83.4526 1.91416 83.4321 1.90744 83.4111 1.90744C83.39 1.90744 83.3696 1.91416 83.3526 1.92662C83.3357 1.93908 83.3231 1.95662 83.3169 1.9767L81.94 5.75315C81.8724 5.93906 81.751 6.10062 81.5912 6.21725C81.4315 6.33388 81.2406 6.40027 81.0429 6.40798L77.0063 6.56047C76.9852 6.56013 76.9646 6.56657 76.9474 6.57884C76.9302 6.5911 76.9174 6.60856 76.9109 6.62863C76.9044 6.64871 76.9045 6.67035 76.9112 6.69037C76.9178 6.71039 76.9308 6.72774 76.948 6.73988L80.119 9.23359C80.2746 9.35522 80.3905 9.52037 80.452 9.70805C80.5135 9.89573 80.5178 10.0975 80.4644 10.2876L79.37 14.1627C79.3635 14.1821 79.3634 14.2031 79.3699 14.2225C79.3764 14.242 79.389 14.2588 79.4059 14.2704C79.4221 14.2843 79.4428 14.2919 79.4642 14.2919C79.4856 14.2919 79.5062 14.2843 79.5225 14.2704L82.8684 12.0278C83.0319 11.9193 83.2238 11.8616 83.42 11.8619L83.4245 11.8439Z" fill="#FFCE31"/>
</svg>
