<svg width="16" height="16" viewBox="0 0 16 16" fill="none" xmlns="http://www.w3.org/2000/svg">
<path d="M13.1133 3.56645L13.1128 3.56598C12.7898 3.24933 12.4089 2.99768 11.9909 2.82474L11.9901 2.82442C11.5565 2.64427 11.0913 2.55205 10.6217 2.55313L10.6203 2.55314C9.95974 2.55314 9.31637 2.73396 8.75779 3.07472L8.75777 3.07473C8.62411 3.15626 8.49759 3.24553 8.37797 3.34256L8 3.64913L7.62203 3.34256C7.50241 3.24553 7.37589 3.15626 7.24223 3.07473L7.24221 3.07472C6.68363 2.73396 6.04026 2.55314 5.37969 2.55314C4.90295 2.55314 4.44375 2.64419 4.00985 2.82442L4.0092 2.82469C3.58956 2.99843 3.21196 3.24791 2.88702 3.56616L2.8862 3.56696L2.8862 3.56696C2.56427 3.88107 2.30709 4.2553 2.12926 4.66844L13.1133 3.56645ZM13.1133 3.56645C13.4351 3.88117 13.6924 4.2556 13.8709 4.66878L13.1133 3.56645ZM2.8186 8.72515C2.51613 8.27361 2.28556 7.83547 2.1276 7.42319L2.8186 8.72515ZM1.85 6.02345C1.85 5.55368 1.94422 5.09844 2.12924 4.66848L2.12749 7.42289C1.93942 6.93103 1.85 6.46152 1.85 6.02345Z" stroke="white" stroke-width="1.2"/>
</svg>
